<svg width="15" height="17" viewBox="0 0 15 17" fill="none" xmlns="http://www.w3.org/2000/svg">
<g opacity="0.5">
<path d="M11.8333 5.8879C11.8333 4.73863 11.3768 3.63643 10.5641 2.82377C9.75147 2.01111 8.64927 1.55457 7.5 1.55457C6.35073 1.55457 5.24853 2.01111 4.43587 2.82377C3.62321 3.63643 3.16667 4.73863 3.16667 5.8879C3.16667 10.9435 1 12.3879 1 12.3879H14C14 12.3879 11.8333 10.9435 11.8333 5.8879Z" stroke="black" stroke-width="2" stroke-linecap="round" stroke-linejoin="round"/>
<path d="M8.74944 15.2768C8.62246 15.4957 8.44021 15.6774 8.22093 15.8037C8.00166 15.93 7.75305 15.9965 7.49999 15.9965C7.24694 15.9965 6.99833 15.93 6.77905 15.8037C6.55977 15.6774 6.37752 15.4957 6.25055 15.2768" stroke="black" stroke-width="2" stroke-linecap="round" stroke-linejoin="round"/>
</g>
<circle cx="12.5" cy="4.5" r="2.5" fill="#63DDAB"/>
</svg>
