<svg width="179" height="39" viewBox="0 0 179 39" fill="none" xmlns="http://www.w3.org/2000/svg">
<path d="M32.1063 64.2691C49.8382 64.2691 64.2127 49.8946 64.2127 32.1627C64.2127 14.4309 49.8382 0.0563965 32.1063 0.0563965C14.3745 0.0563965 0 14.4309 0 32.1627C0 49.8946 14.3745 64.2691 32.1063 64.2691Z" fill="#88FFCE"/>
<path d="M20.6796 24.2804C21.627 24.2804 22.3951 23.5123 22.3951 22.5649C22.3951 21.6174 21.627 20.8494 20.6796 20.8494C19.7322 20.8494 18.9641 21.6174 18.9641 22.5649C18.9641 23.5123 19.7322 24.2804 20.6796 24.2804Z" fill="#282828"/>
<path d="M41.2458 24.2804C42.1932 24.2804 42.9613 23.5123 42.9613 22.5649C42.9613 21.6174 42.1932 20.8494 41.2458 20.8494C40.2983 20.8494 39.5303 21.6174 39.5303 22.5649C39.5303 23.5123 40.2983 24.2804 41.2458 24.2804Z" fill="#282828"/>
<path d="M25.4514 28.3078C29.5108 29.8076 33.9123 30.1255 38.1451 29.2247C39.4366 28.9536 38.8895 26.9719 37.5979 27.2529C33.7223 28.0511 29.6996 27.7314 25.9986 26.331C25.7359 26.2613 25.4563 26.2977 25.2202 26.4324C24.9841 26.567 24.8104 26.7891 24.7367 27.0508C24.6692 27.3134 24.7059 27.5919 24.8391 27.828C24.9724 28.0642 25.1918 28.2396 25.4514 28.3177V28.3078Z" fill="#282828"/>
<path d="M89.3485 64.2691C107.08 64.2691 121.455 49.8946 121.455 32.1627C121.455 14.4309 107.08 0.0563965 89.3485 0.0563965C71.6167 0.0563965 57.2422 14.4309 57.2422 32.1627C57.2422 49.8946 71.6167 64.2691 89.3485 64.2691Z" fill="#88FFCE"/>
<path d="M77.9218 24.2804C78.8692 24.2804 79.6373 23.5123 79.6373 22.5649C79.6373 21.6174 78.8692 20.8494 77.9218 20.8494C76.9743 20.8494 76.2063 21.6174 76.2063 22.5649C76.2063 23.5123 76.9743 24.2804 77.9218 24.2804Z" fill="#282828"/>
<path d="M98.4879 24.2804C99.4354 24.2804 100.203 23.5123 100.203 22.5649C100.203 21.6174 99.4354 20.8494 98.4879 20.8494C97.5405 20.8494 96.7725 21.6174 96.7725 22.5649C96.7725 23.5123 97.5405 24.2804 98.4879 24.2804Z" fill="#282828"/>
<path d="M87.6084 25.074C86.9525 25.4131 86.4085 25.9346 86.0421 26.5756C85.6756 27.2167 85.5023 27.9501 85.5429 28.6874C85.5538 29.0013 85.6418 29.3078 85.7993 29.5796C86.0196 29.8872 86.3321 30.1168 86.6915 30.2352C87.2619 30.4338 87.8791 30.4549 88.4617 30.2956C89.0443 30.1363 89.5649 29.8042 89.9549 29.343C90.3542 28.8312 90.5973 28.2149 90.6549 27.5683C90.7381 26.9178 90.5822 26.2591 90.2162 25.7148C90.0287 25.4478 89.7677 25.2409 89.4649 25.1193C89.1622 24.9977 88.8307 24.9665 88.5105 25.0296" fill="white"/>
<path d="M87.0861 24.2063C86.5099 24.5142 86.0014 24.9346 85.5907 25.4427C85.18 25.9507 84.8755 26.5361 84.6952 27.164C84.2861 28.5591 84.4931 30.3091 85.9128 31.0337C86.5232 31.3371 87.2011 31.4791 87.8819 31.4463C88.5628 31.4135 89.2239 31.207 89.8023 30.8464C90.4193 30.4391 90.9186 29.8768 91.2499 29.2158C91.5813 28.5548 91.7331 27.8184 91.6903 27.0802C91.6748 26.2194 91.333 25.3965 90.734 24.7781C90.4106 24.4606 90.0132 24.2285 89.5778 24.1029C89.1423 23.9772 88.6824 23.962 88.2396 24.0584C87.9776 24.1332 87.7554 24.3078 87.6208 24.5448C87.4862 24.7817 87.45 25.0619 87.5199 25.3253C87.5979 25.5852 87.7732 25.805 88.0091 25.939C88.2451 26.073 88.5236 26.111 88.7868 26.045C88.9938 25.9957 88.7473 26.045 88.7424 26.045C88.7375 26.045 88.8952 26.045 88.9297 26.045C89.0727 26.045 88.7523 25.9908 88.8854 26.045C88.9347 26.045 88.9889 26.045 89.0382 26.0844C89.0875 26.1239 89.2107 26.1732 89.0924 26.0844C88.9741 25.9957 89.1713 26.1387 89.1811 26.1436C89.2276 26.1674 89.2707 26.1972 89.3093 26.2323L89.2255 26.1682L89.3093 26.2471L89.4128 26.3654C89.5114 26.464 89.3142 26.1633 89.4128 26.3654C89.4424 26.4344 89.5607 26.7105 89.4917 26.4985C89.5262 26.607 89.5657 26.7105 89.5903 26.8189C89.6094 26.873 89.621 26.9294 89.6248 26.9866C89.6248 26.7647 89.6248 26.9866 89.6248 27.0506C89.6322 27.1639 89.6322 27.2775 89.6248 27.3908C89.6248 27.4598 89.5706 27.7704 89.6248 27.5485C89.6002 27.6668 89.5804 27.7802 89.5509 27.8936C89.5213 28.007 89.5114 28.0366 89.4868 28.1056C89.4621 28.1746 89.4178 28.2781 89.4868 28.145C89.4385 28.2515 89.3842 28.3552 89.3241 28.4556C89.2896 28.5196 89.2452 28.5788 89.2058 28.6429C89.1664 28.707 89.3044 28.5394 89.2058 28.6429C89.1072 28.7464 89.0776 28.7908 89.0037 28.8647C88.9297 28.9387 88.9051 28.9732 88.8657 28.988C88.9593 28.9584 88.984 28.8992 88.8657 28.988C88.7848 29.0452 88.7009 29.0978 88.6142 29.1457L88.4466 29.2295C88.348 29.2837 88.4023 29.3035 88.4861 29.2295C88.3974 29.2782 88.3005 29.31 88.2002 29.3232L88.0523 29.3577C87.9882 29.3577 87.7713 29.4563 88.0276 29.3577C87.8301 29.3898 87.6287 29.3898 87.4311 29.3577C87.234 29.3577 87.4607 29.3577 87.4804 29.3577C87.4326 29.3417 87.3829 29.3317 87.3325 29.3281C87.2071 29.3169 87.0849 29.2818 86.9727 29.2246C87.0664 29.3133 87.0861 29.2788 86.9973 29.2246L86.8544 29.1506L86.7213 29.0866C86.8987 29.2098 86.7607 29.1161 86.7213 29.0866C86.6818 29.057 86.6079 28.9288 86.6769 29.0422C86.7459 29.1556 86.6769 28.9978 86.6473 28.9682C86.5685 28.8549 86.672 29.1161 86.6473 28.9682C86.6323 28.885 86.6125 28.8027 86.5882 28.7218C86.5488 28.5739 86.5882 28.8943 86.5882 28.7218C86.5882 28.6675 86.5882 28.6182 86.5882 28.564C86.5882 28.5098 86.5882 28.3373 86.5882 28.2239V28.0711C86.5882 27.9527 86.5488 28.0168 86.5882 28.1204C86.5635 28.0415 86.6523 27.8295 86.672 27.7506C86.6917 27.6718 86.7361 27.5337 86.7755 27.4253C86.7755 27.3908 86.8544 27.2429 86.7755 27.3711C86.6966 27.4992 86.8199 27.2823 86.8347 27.2527C86.8889 27.1492 86.9431 27.0506 87.0023 26.957C87.0614 26.8633 87.0565 26.8682 87.0861 26.8288L87.1748 26.7056L87.1058 26.7894C87.1058 26.7499 87.3227 26.5429 87.3572 26.5084C87.3917 26.4739 87.5396 26.3309 87.6333 26.2471C87.7269 26.1633 87.7269 26.1239 87.6037 26.2471C87.6522 26.2054 87.7051 26.1691 87.7614 26.1387C87.8748 26.0647 87.998 25.9957 88.1213 25.9316C88.355 25.7929 88.5248 25.5678 88.594 25.3049C88.6631 25.042 88.6262 24.7625 88.491 24.5267C88.3487 24.2955 88.1228 24.1281 87.8602 24.0592C87.5976 23.9903 87.3186 24.0254 87.0811 24.157L87.0861 24.2063Z" fill="#282828"/>
<path d="M146.192 64.2691C163.923 64.2691 178.298 49.8946 178.298 32.1627C178.298 14.4309 163.923 0.0563965 146.192 0.0563965C128.46 0.0563965 114.085 14.4309 114.085 32.1627C114.085 49.8946 128.46 64.2691 146.192 64.2691Z" fill="#88FFCE"/>
<path d="M134.77 24.2804C135.717 24.2804 136.485 23.5123 136.485 22.5649C136.485 21.6174 135.717 20.8494 134.77 20.8494C133.822 20.8494 133.054 21.6174 133.054 22.5649C133.054 23.5123 133.822 24.2804 134.77 24.2804Z" fill="#282828"/>
<path d="M155.336 24.2804C156.284 24.2804 157.052 23.5123 157.052 22.5649C157.052 21.6174 156.284 20.8494 155.336 20.8494C154.389 20.8494 153.621 21.6174 153.621 22.5649C153.621 23.5123 154.389 24.2804 155.336 24.2804Z" fill="#282828"/>
<path d="M140.656 28.5344C140.839 29.2046 141.24 29.7949 141.795 30.2123C142.351 30.6296 143.029 30.8503 143.724 30.8396C144.418 30.8288 145.09 30.5873 145.632 30.153C146.174 29.7187 146.557 29.1163 146.719 28.4408H144.747C145.191 29.8309 146.226 31.2062 147.789 31.3147C149.179 31.4182 150.643 30.3288 150.574 28.8499C150.556 28.5896 150.44 28.3459 150.249 28.1679C150.058 27.9898 149.807 27.8909 149.546 27.8909C149.285 27.8909 149.034 27.9898 148.843 28.1679C148.653 28.3459 148.536 28.5896 148.518 28.8499C148.518 28.8844 148.558 29.1753 148.518 28.9584L148.494 29.0471C148.528 28.9584 148.533 28.9436 148.494 29.0126C148.454 29.0816 148.563 28.914 148.454 29.0619C148.346 29.2098 148.518 29.0619 148.361 29.1457C148.361 29.1457 148.114 29.2689 148.218 29.2295C148.321 29.19 148.08 29.264 148.055 29.2689C147.853 29.3281 148.139 29.3034 147.932 29.2689C147.725 29.2344 147.976 29.2689 147.863 29.2689C147.579 29.1896 147.33 29.0157 147.158 28.776C146.968 28.5082 146.821 28.2121 146.724 27.8985C146.428 26.9668 144.999 26.883 144.752 27.8985C144.704 28.1686 144.551 28.4091 144.328 28.5689C144.417 28.495 144.008 28.7464 144.116 28.6971C143.999 28.7573 143.869 28.7893 143.737 28.7908C143.495 28.788 143.26 28.7095 143.066 28.5662C142.871 28.4229 142.727 28.2221 142.652 27.9922C142.268 26.7302 140.281 27.2675 140.68 28.5393L140.656 28.5344Z" fill="#282828"/>
</svg>
