<svg width="234" height="107" viewBox="0 0 234 107" fill="none" xmlns="http://www.w3.org/2000/svg">
<g filter="url(#filter0_d)">
<path d="M53.8102 89C75.6255 89 93.3102 71.3152 93.3102 49.5C93.3102 27.6847 75.6255 10 53.8102 10C31.995 10 14.3102 27.6848 14.3102 49.5C14.3102 71.3152 31.995 89 53.8102 89Z" fill="#88FFCE" stroke="white" stroke-width="8"/>
<path d="M117.103 89C138.918 89 156.603 71.3152 156.603 49.5C156.603 27.6847 138.918 10 117.103 10C95.288 10 77.6033 27.6848 77.6033 49.5C77.6033 71.3152 95.288 89 117.103 89Z" fill="#88FFCE" stroke="white" stroke-width="8"/>
<path d="M179.954 89C201.77 89 219.454 71.3152 219.454 49.5C219.454 27.6847 201.77 10 179.954 10C158.139 10 140.454 27.6847 140.454 49.5C140.454 71.3152 158.139 89 179.954 89Z" fill="#88FFCE" stroke="white" stroke-width="8"/>
<path d="M53.8102 85C73.4163 85 89.3102 69.1061 89.3102 49.5C89.3102 29.8939 73.4163 14 53.8102 14C34.2041 14 18.3102 29.8939 18.3102 49.5C18.3102 69.1061 34.2041 85 53.8102 85Z" fill="#88FFCE"/>
<path d="M41.1756 40.7844C42.2232 40.7844 43.0724 39.9352 43.0724 38.8876C43.0724 37.84 42.2232 36.9908 41.1756 36.9908C40.128 36.9908 39.2788 37.84 39.2788 38.8876C39.2788 39.9352 40.128 40.7844 41.1756 40.7844Z" fill="#282828"/>
<path d="M63.9157 40.7844C64.9633 40.7844 65.8126 39.9352 65.8126 38.8876C65.8126 37.84 64.9633 36.9908 63.9157 36.9908C62.8682 36.9908 62.0189 37.84 62.0189 38.8876C62.0189 39.9352 62.8682 40.7844 63.9157 40.7844Z" fill="#282828"/>
<path d="M46.452 45.2376C50.9405 46.8959 55.8072 47.2474 60.4874 46.2514C61.9154 45.9516 61.3104 43.7604 59.8824 44.0711C55.597 44.9537 51.1491 44.6002 47.057 43.0519C46.7665 42.9748 46.4574 43.015 46.1963 43.1639C45.9352 43.3128 45.7432 43.5584 45.6617 43.8477C45.587 44.138 45.6276 44.446 45.775 44.7071C45.9223 44.9682 46.1649 45.1622 46.452 45.2485V45.2376Z" fill="#282828"/>
<path d="M117.103 85C136.709 85 152.603 69.1061 152.603 49.5C152.603 29.8939 136.709 14 117.103 14C97.4971 14 81.6033 29.8939 81.6033 49.5C81.6033 69.1061 97.4971 85 117.103 85Z" fill="#88FFCE"/>
<path d="M104.469 40.7844C105.516 40.7844 106.365 39.9352 106.365 38.8876C106.365 37.84 105.516 36.9908 104.469 36.9908C103.421 36.9908 102.572 37.84 102.572 38.8876C102.572 39.9352 103.421 40.7844 104.469 40.7844Z" fill="#282828"/>
<path d="M127.209 40.7844C128.256 40.7844 129.105 39.9352 129.105 38.8876C129.105 37.84 128.256 36.9908 127.209 36.9908C126.161 36.9908 125.312 37.84 125.312 38.8876C125.312 39.9352 126.161 40.7844 127.209 40.7844Z" fill="#282828"/>
<path d="M115.179 41.662C114.454 42.0369 113.852 42.6135 113.447 43.3224C113.042 44.0312 112.85 44.8421 112.895 45.6573C112.907 46.0044 113.005 46.3433 113.179 46.6439C113.422 46.984 113.768 47.2379 114.165 47.3688C114.796 47.5884 115.478 47.6117 116.123 47.4355C116.767 47.2594 117.342 46.8922 117.774 46.3822C118.215 45.8163 118.484 45.135 118.548 44.42C118.64 43.7006 118.467 42.9724 118.062 42.3706C117.855 42.0753 117.567 41.8466 117.232 41.7121C116.897 41.5776 116.53 41.5432 116.177 41.6129" fill="white"/>
<path d="M114.601 40.7026C113.964 41.0431 113.402 41.5079 112.948 42.0697C112.494 42.6315 112.157 43.2787 111.958 43.973C111.505 45.5155 111.734 47.4505 113.304 48.2518C113.979 48.5872 114.728 48.7442 115.481 48.708C116.234 48.6717 116.965 48.4434 117.605 48.0446C118.287 47.5943 118.839 46.9725 119.205 46.2417C119.572 45.5108 119.739 44.6965 119.692 43.8804C119.675 42.9285 119.297 42.0187 118.635 41.3349C118.277 40.9838 117.838 40.7273 117.356 40.5883C116.875 40.4494 116.366 40.4325 115.877 40.5391C115.587 40.6218 115.341 40.8149 115.193 41.0769C115.044 41.3388 115.004 41.6487 115.081 41.9399C115.167 42.2273 115.361 42.4703 115.622 42.6185C115.883 42.7667 116.191 42.8087 116.482 42.7357C116.711 42.6812 116.438 42.7357 116.433 42.7357C116.427 42.7357 116.602 42.7357 116.64 42.7357C116.798 42.7357 116.444 42.6758 116.591 42.7357C116.645 42.7357 116.705 42.7357 116.76 42.7793C116.814 42.8229 116.95 42.8774 116.82 42.7793C116.689 42.6812 116.907 42.8393 116.918 42.8447C116.969 42.871 117.017 42.904 117.059 42.9428L116.967 42.872L117.059 42.9592L117.174 43.09C117.283 43.199 117.065 42.8665 117.174 43.09C117.207 43.1663 117.337 43.4716 117.261 43.2372C117.299 43.3571 117.343 43.4716 117.37 43.5915C117.391 43.6512 117.404 43.7136 117.408 43.7768C117.408 43.5315 117.408 43.7768 117.408 43.8476C117.416 43.9729 117.416 44.0985 117.408 44.2237C117.408 44.3001 117.348 44.6434 117.408 44.3982C117.381 44.529 117.359 44.6543 117.327 44.7797C117.294 44.9051 117.283 44.9378 117.256 45.0141C117.228 45.0904 117.179 45.2049 117.256 45.0577C117.202 45.1755 117.142 45.2901 117.076 45.4011C117.038 45.4719 116.989 45.5373 116.945 45.6082C116.901 45.6791 117.054 45.4937 116.945 45.6082C116.836 45.7227 116.803 45.7717 116.722 45.8535C116.64 45.9352 116.613 45.9734 116.569 45.9897C116.672 45.957 116.7 45.8916 116.569 45.9897C116.48 46.053 116.387 46.1112 116.291 46.1642L116.106 46.2568C115.997 46.3168 116.057 46.3386 116.149 46.2568C116.051 46.3107 115.944 46.3458 115.833 46.3604L115.67 46.3985C115.599 46.3985 115.359 46.5076 115.642 46.3985C115.424 46.4341 115.201 46.4341 114.983 46.3985C114.765 46.3985 115.015 46.3985 115.037 46.3985C114.984 46.3808 114.929 46.3698 114.874 46.3658C114.735 46.3535 114.6 46.3146 114.476 46.2514C114.579 46.3495 114.601 46.3113 114.503 46.2514L114.345 46.1696L114.198 46.0988C114.394 46.235 114.241 46.1315 114.198 46.0988C114.154 46.0661 114.073 45.9243 114.149 46.0497C114.225 46.1751 114.149 46.0006 114.116 45.9679C114.029 45.8426 114.143 46.1315 114.116 45.9679C114.099 45.8759 114.078 45.7849 114.051 45.6954C114.007 45.5319 114.051 45.8862 114.051 45.6954C114.051 45.6355 114.051 45.581 114.051 45.521C114.051 45.461 114.051 45.2703 114.051 45.1449V44.9759C114.051 44.8451 114.007 44.916 114.051 45.0304C114.023 44.9432 114.122 44.7088 114.143 44.6216C114.165 44.5344 114.214 44.3818 114.258 44.2619C114.258 44.2237 114.345 44.0602 114.258 44.2019C114.171 44.3437 114.307 44.1038 114.323 44.0711C114.383 43.9567 114.443 43.8476 114.509 43.7441C114.574 43.6405 114.569 43.646 114.601 43.6024L114.699 43.4661L114.623 43.5588C114.623 43.5152 114.863 43.2862 114.901 43.2481C114.939 43.2099 115.103 43.0519 115.206 42.9592C115.31 42.8665 115.31 42.8229 115.174 42.9592C115.227 42.9131 115.286 42.8729 115.348 42.8393C115.473 42.7575 115.61 42.6812 115.746 42.6104C116.004 42.4569 116.192 42.208 116.269 41.9174C116.345 41.6267 116.304 41.3177 116.155 41.0569C115.997 40.8013 115.748 40.6162 115.457 40.54C115.167 40.4639 114.858 40.5026 114.596 40.6481L114.601 40.7026Z" fill="#282828"/>
<path d="M179.954 85C199.56 85 215.454 69.1061 215.454 49.5C215.454 29.8939 199.56 14 179.954 14C160.348 14 144.454 29.8939 144.454 49.5C144.454 69.1061 160.348 85 179.954 85Z" fill="#88FFCE"/>
<path d="M167.325 40.7844C168.373 40.7844 169.222 39.9352 169.222 38.8876C169.222 37.84 168.373 36.9908 167.325 36.9908C166.278 36.9908 165.429 37.84 165.429 38.8876C165.429 39.9352 166.278 40.7844 167.325 40.7844Z" fill="#282828"/>
<path d="M190.065 40.7844C191.113 40.7844 191.962 39.9352 191.962 38.8876C191.962 37.84 191.113 36.9908 190.065 36.9908C189.018 36.9908 188.169 37.84 188.169 38.8876C188.169 39.9352 189.018 40.7844 190.065 40.7844Z" fill="#282828"/>
<path d="M173.833 45.4883C174.036 46.2294 174.479 46.882 175.093 47.3435C175.707 47.8049 176.458 48.049 177.226 48.0371C177.994 48.0252 178.736 47.7582 179.336 47.278C179.935 46.7977 180.358 46.1317 180.538 45.3847H178.357C178.848 46.9218 179.993 48.4425 181.72 48.5625C183.257 48.6769 184.876 47.4723 184.8 45.8371C184.78 45.5493 184.652 45.2798 184.441 45.083C184.23 44.8862 183.952 44.7767 183.664 44.7767C183.375 44.7767 183.097 44.8862 182.886 45.083C182.675 45.2798 182.547 45.5493 182.527 45.8371C182.527 45.8753 182.571 46.1969 182.527 45.9571L182.5 46.0552C182.538 45.9571 182.543 45.9407 182.5 46.017C182.456 46.0933 182.576 45.908 182.456 46.0715C182.336 46.235 182.527 46.0715 182.353 46.1642C182.353 46.1642 182.08 46.3004 182.195 46.2568C182.309 46.2132 182.042 46.295 182.015 46.3004C181.791 46.3658 182.107 46.3386 181.878 46.3004C181.65 46.2623 181.928 46.3004 181.802 46.3004C181.488 46.2128 181.213 46.0205 181.023 45.7554C180.813 45.4594 180.651 45.1319 180.543 44.7852C180.216 43.755 178.635 43.6623 178.363 44.7852C178.309 45.0838 178.141 45.3497 177.894 45.5265C177.992 45.4447 177.54 45.7227 177.66 45.6682C177.53 45.7347 177.386 45.7702 177.24 45.7717C176.973 45.7687 176.713 45.6818 176.498 45.5234C176.283 45.365 176.123 45.143 176.041 44.8887C175.616 43.4934 173.419 44.0875 173.861 45.4937L173.833 45.4883Z" fill="#282828"/>
</g>
<defs>
<filter id="filter0_d" x="0.310242" y="0" width="233.144" height="107" filterUnits="userSpaceOnUse" color-interpolation-filters="sRGB">
<feFlood flood-opacity="0" result="BackgroundImageFix"/>
<feColorMatrix in="SourceAlpha" type="matrix" values="0 0 0 0 0 0 0 0 0 0 0 0 0 0 0 0 0 0 127 0"/>
<feOffset dy="4"/>
<feGaussianBlur stdDeviation="5"/>
<feColorMatrix type="matrix" values="0 0 0 0 0 0 0 0 0 0 0 0 0 0 0 0 0 0 0.25 0"/>
<feBlend mode="normal" in2="BackgroundImageFix" result="effect1_dropShadow"/>
<feBlend mode="normal" in="SourceGraphic" in2="effect1_dropShadow" result="shape"/>
</filter>
</defs>
</svg>
